<?xml version="1.0" encoding="UTF-8" standalone="no"?>
<!-- Created with Inkscape (http://www.inkscape.org/) -->

<svg
   width="31.096655mm"
   height="25.888483mm"
   viewBox="0 0 31.096655 25.888483"
   version="1.1"
   id="svg1322"
   inkscape:export-filename="bitmap.svg"
   inkscape:export-xdpi="72"
   inkscape:export-ydpi="72"
   sodipodi:docname="kazk-logo.svg"
   xmlns:inkscape="http://www.inkscape.org/namespaces/inkscape"
   xmlns:sodipodi="http://sodipodi.sourceforge.net/DTD/sodipodi-0.dtd"
   xmlns="http://www.w3.org/2000/svg"
   xmlns:svg="http://www.w3.org/2000/svg">
  <sodipodi:namedview
     id="namedview1324"
     pagecolor="#ffffff"
     bordercolor="#999999"
     borderopacity="1"
     inkscape:showpageshadow="0"
     inkscape:pageopacity="0"
     inkscape:pagecheckerboard="0"
     inkscape:deskcolor="#d1d1d1"
     inkscape:document-units="mm"
     showgrid="false" />
  <defs
     id="defs1319">
    <linearGradient
       id="b"
       x1="179.49001"
       y1="290.70001"
       x2="209.71001"
       y2="332.78"
       gradientTransform="rotate(-15.72,-379.78807,251.81133)"
       gradientUnits="userSpaceOnUse">
      <stop
         offset="0"
         stop-color="#27348b"
         id="stop1081" />
      <stop
         offset=".5"
         stop-color="#1e6eb6"
         id="stop1083" />
      <stop
         offset=".96"
         stop-color="#1d71b8"
         id="stop1085" />
    </linearGradient>
    <linearGradient
       id="c"
       x1="63.189999"
       y1="142.32001"
       x2="145.92"
       y2="142.32001"
       gradientTransform="translate(33.65,-1.87)"
       gradientUnits="userSpaceOnUse">
      <stop
         offset="0"
         stop-color="#fff"
         id="stop1088" />
      <stop
         offset="0"
         stop-color="#f5d45a"
         id="stop1090" />
      <stop
         offset=".14"
         stop-color="#f1bb63"
         id="stop1092" />
      <stop
         offset=".31"
         stop-color="#eda36d"
         id="stop1094" />
      <stop
         offset=".5"
         stop-color="#eb9274"
         id="stop1096" />
      <stop
         offset=".7"
         stop-color="#e98878"
         id="stop1098" />
      <stop
         offset=".95"
         stop-color="#e9857a"
         id="stop1100" />
    </linearGradient>
  </defs>
  <g
     inkscape:label="Layer 1"
     inkscape:groupmode="layer"
     id="layer1"
     transform="translate(2.2231219e-7,-0.3639021)">
    <g
       id="g1111"
       transform="matrix(0.26458333,0,0,0.26458333,-24.698607,-26.971196)">
      <path
         class="f"
         d="m 203.84,138.33 c 0.38,-0.89 0,-18.38 0,-18.38 0,0 -3.83,-14.17 -27.06,-2.81 -23.23,11.36 -33.06,31.91 -32.93,35.23 0.13,3.32 -1.79,14.93 10.34,19.53 12.13,4.6 25.02,16.31 28.85,23.61 3.83,7.3 4.72,-7.02 4.72,-7.02 0,0 -4.98,-15.83 8.17,-19.66 13.15,-3.83 19.4,-21.83 10.21,-28.08 l -2.3,-2.43 z"
         id="path1105"
         style="opacity:0.93;fill:url(#b)" />
      <path
         class="e"
         d="m 102.7,135.37 c 0.19,-0.39 0.4,-0.75 0.62,-1.13 2.72,-4.51 20.34,-32.32 40.87,-30.91 22.34,1.53 27.89,7.22 27.89,7.22 0,0 15.88,13.7 8.68,29.87 -1.51,3.39 -4.25,6.09 -7.57,7.74 -5.9,2.93 -16.53,8.33 -18.27,10.06 -2.43,2.43 -16.72,17.1 -27.7,18.89 -10.88,1.77 -33.68,0.41 -29.97,-25.86 0.06,-0.46 0.15,-0.91 0.25,-1.36 0.57,-2.49 1.36,-5.27 2.47,-8.23 0.87,-2.32 1.8,-4.41 2.74,-6.28 z"
         id="path1107"
         style="opacity:0.87;fill:url(#c)" />
      <path
         class="g"
         d="m 128.84,169.38 c -0.45,-1.46 -2.49,-17.2 4.4,-35.02 6.89,-17.82 20.72,-36.58 39.08,-31.61 18.36,4.98 26.78,14.74 27.55,21.44 0.77,6.7 -2.49,14.93 -22.02,27.19 0,0 -4.98,4.6 -4.21,15.51 0.77,10.91 -21.06,15.51 -21.06,15.51 0,0 -19.34,1.34 -23.74,-13.02 z"
         id="path1109"
         style="display:inline;opacity:0.56;fill:#e6007e" />
    </g>
    <g
       id="g1119"
       transform="matrix(0.26458333,0,0,0.26458333,-24.698607,-26.971196)"
       style="display:none">
      <path
         class="d"
         d="m 184.81,201.15 c -1.1,0 -1.94,-1.34 -2.49,-2.39 -3.87,-7.38 -16.9,-18.93 -28.54,-23.34 -11.95,-4.53 -12.2,-12.37 -10.7,-20.18 1.42,-7.4 10.2,-24.37 33.25,-35.64 18.61,-9.1 25.16,-2.04 27.1,1.42 0.51,0.91 0.79,1.96 0.81,3.06 0.06,3.14 0.2,10.89 0.13,14.86 v 0 c -0.03,1.45 0.51,2.83 1.51,3.89 l 0.12,0.13 c 0.18,0.19 0.4,0.38 0.71,0.62 3.42,2.6 4.83,7.06 3.88,12.24 -1.16,6.25 -6.25,14.1 -14.7,16.56 -10.74,3.13 -8.83,14.66 -7.99,18.12 0.17,0.7 0.22,1.42 0.15,2.16 -0.51,5.34 -1.51,8.19 -2.96,8.47 -0.09,0.02 -0.18,0.03 -0.27,0.03 z m 7.29,-84.85 c -3.74,0 -8.7,1.14 -15.26,4.35 -28.28,13.83 -32.58,34.61 -32.62,34.82 -1.31,6.81 -1.73,14.44 9.97,18.88 12.23,4.64 25.18,16.31 29.16,23.89 0.77,1.47 1.32,1.8 1.51,1.76 0.46,-0.09 1.48,-1.76 2.03,-7.45 0.06,-0.61 0.02,-1.2 -0.12,-1.77 -0.9,-3.71 -2.93,-16.09 8.8,-19.51 7.97,-2.32 12.79,-9.74 13.88,-15.66 0.88,-4.73 -0.38,-8.78 -3.44,-11.1 -0.36,-0.27 -0.62,-0.5 -0.85,-0.74 l -0.12,-0.13 c -1.21,-1.28 -1.86,-2.95 -1.83,-4.71 v 0 c 0.07,-3.95 -0.06,-11.68 -0.13,-14.81 -0.02,-0.91 -0.25,-1.77 -0.66,-2.51 -1.13,-2 -3.95,-5.3 -10.32,-5.3 z"
         id="path1113"
         style="fill:#fffefe" />
      <path
         class="d"
         d="m 117.71,180.16 c -6.74,0 -13.99,-1.65 -18.74,-6.3 -4.75,-4.65 -6.5,-11.63 -5.21,-20.74 0.07,-0.47 0.15,-0.95 0.26,-1.41 0.64,-2.81 1.48,-5.61 2.49,-8.31 0.81,-2.15 1.74,-4.29 2.76,-6.34 v 0 c 0.2,-0.4 0.41,-0.78 0.64,-1.17 1.39,-2.31 6.5,-10.42 13.84,-17.79 9.46,-9.5 18.74,-14.01 27.56,-13.41 22.3,1.53 28.03,7.15 28.27,7.39 0.13,0.11 16.08,14.14 8.79,30.51 -1.52,3.42 -4.31,6.27 -7.85,8.02 -10.3,5.11 -16.9,8.74 -18.12,9.95 l -0.28,0.28 c -11.08,11.13 -20.67,17.62 -27.74,18.77 -2.08,0.34 -4.35,0.54 -6.68,0.54 z m -17.4,-42.58 c -1.01,2.02 -1.92,4.11 -2.72,6.23 -0.99,2.65 -1.81,5.4 -2.45,8.16 -0.1,0.44 -0.18,0.87 -0.24,1.32 -1.23,8.73 0.41,15.38 4.87,19.75 6.09,5.96 16.61,6.72 24.43,5.45 4.76,-0.77 13.32,-4.6 27.1,-18.45 l 0.28,-0.28 c 1.69,-1.69 10.95,-6.47 18.42,-10.17 3.3,-1.64 5.89,-4.28 7.3,-7.46 6.95,-15.59 -8.37,-29.06 -8.53,-29.19 -0.09,-0.09 -5.81,-5.59 -27.55,-7.08 -8.48,-0.58 -17.45,3.81 -26.66,13.07 -7.24,7.27 -12.29,15.28 -13.67,17.57 -0.22,0.36 -0.41,0.71 -0.6,1.09 v 0 z"
         id="path1115"
         style="fill:#fffefe" />
      <path
         class="d"
         d="m 148.3,184.96 c -1.88,0 -5.29,-0.17 -9,-1.18 -7.25,-1.96 -12.06,-6.21 -13.92,-12.28 v 0 c -0.54,-1.75 -2.51,-17.48 4.42,-35.4 7.23,-18.7 21.48,-36.92 39.77,-31.96 18.16,4.92 27.13,14.56 27.97,21.94 0.68,5.98 -1.23,14.53 -22.29,27.74 v 0 c 0,0 -4.68,4.54 -3.94,14.98 0.79,11.29 -20.61,15.92 -21.52,16.12 -0.09,0 -0.63,0.04 -1.49,0.04 z m -21.82,-13.8 c 4.22,13.75 22.95,12.62 23.15,12.61 0.13,-0.03 21.24,-4.6 20.52,-14.89 -0.78,-11.06 4.19,-15.78 4.4,-15.97 20.59,-12.93 22.48,-21.06 21.84,-26.7 -0.77,-6.76 -9.59,-16.2 -27.13,-20.95 -17.55,-4.76 -31.34,13.03 -38.39,31.26 -6.71,17.35 -4.89,33.02 -4.39,34.64 z"
         id="path1117"
         style="fill:#fffefe" />
    </g>
  </g>
</svg>
